<svg width="10" height="18" viewBox="0 0 10 18" fill="none" xmlns="http://www.w3.org/2000/svg">
<path d="M-3.93402e-07 9C0.00978429 9.35513 0.136985 9.67982 0.410958 9.94363L8.02348 17.655C8.23875 17.8782 8.51272 18 8.83562 18C9.48141 18 10 17.4724 10 16.8027C10 16.478 9.8728 16.1635 9.64775 15.9301L2.78865 9.01015L9.64775 2.0699C9.86301 1.83653 10 1.53213 10 1.19729C10 0.527621 9.48141 -2.26683e-08 8.83562 -5.08968e-08C8.51272 -6.50111e-08 8.23875 0.121759 8.02348 0.344983L0.410958 8.06652C0.136985 8.34047 -3.77879e-07 8.64487 -3.93402e-07 9Z" fill="white"/>
</svg>
