<svg width="20" height="20" viewBox="0 0 20 20" fill="none" xmlns="http://www.w3.org/2000/svg">
<path d="M10.0001 2.88334C11.3534 2.88334 12.4501 3.98001 12.4501 5.33334C12.4501 6.68667 11.3534 7.78334 10.0001 7.78334C8.64675 7.78334 7.55008 6.68667 7.55008 5.33334C7.55008 3.98001 8.64675 2.88334 10.0001 2.88334ZM10.0001 13.3833C13.4651 13.3833 17.1167 15.0867 17.1167 15.8333V17.1167H2.88341V15.8333C2.88341 15.0867 6.53508 13.3833 10.0001 13.3833ZM10.0001 0.666672C7.42175 0.666672 5.33342 2.75501 5.33342 5.33334C5.33342 7.91167 7.42175 10 10.0001 10C12.5784 10 14.6667 7.91167 14.6667 5.33334C14.6667 2.75501 12.5784 0.666672 10.0001 0.666672ZM10.0001 11.1667C6.88508 11.1667 0.666748 12.73 0.666748 15.8333V19.3333H19.3334V15.8333C19.3334 12.73 13.1151 11.1667 10.0001 11.1667Z" fill="white"/>
</svg>
